<svg width="32" height="32" viewBox="0 0 32 32" fill="none" xmlns="http://www.w3.org/2000/svg">
<path d="M26.6667 2.6665H5.33341C3.85341 2.6665 2.66675 3.85317 2.66675 5.33317V26.6665C2.66675 28.1465 3.85341 29.3332 5.33341 29.3332H26.6667C28.1467 29.3332 29.3334 28.1465 29.3334 26.6665V5.33317C29.3334 3.85317 28.1467 2.6665 26.6667 2.6665ZM26.6667 26.6665H5.33341V5.33317H26.6667V26.6665ZM11.7734 13.6665L9.72008 11.6132L8.00008 13.3332V7.99984H13.3334L11.6134 9.71984L13.6667 11.7732L11.7734 13.6665ZM18.3334 11.7732L20.3867 9.71984L18.6667 7.99984H24.0001V13.3332L22.2801 11.6132L20.2267 13.6665L18.3334 11.7732ZM20.2267 18.3332L22.2801 20.3865L24.0001 18.6665V23.9998H18.6667L20.3867 22.2798L18.3334 20.2265L20.2267 18.3332ZM13.6667 20.2265L11.6134 22.2798L13.3334 23.9998H8.00008V18.6665L9.72008 20.3865L11.7734 18.3332" fill="#DFDFDF"/>
</svg>
