<svg width="32" height="32" viewBox="0 0 32 32" fill="none" xmlns="http://www.w3.org/2000/svg">
<path d="M8 12H18V14H8V12Z" fill="#DFDFDF"/>
<path d="M21.448 20C23.0978 18.0408 24.0018 15.5613 24 13C24 10.8244 23.3549 8.69767 22.1462 6.88873C20.9375 5.07979 19.2195 3.66989 17.2095 2.83733C15.1995 2.00477 12.9878 1.78693 10.854 2.21137C8.72022 2.6358 6.76021 3.68345 5.22183 5.22183C3.68345 6.76021 2.6358 8.72022 2.21137 10.854C1.78693 12.9878 2.00477 15.1995 2.83733 17.2095C3.66989 19.2195 5.07979 20.9375 6.88873 22.1462C8.69767 23.3549 10.8244 24 13 24C15.5613 24.0018 18.0408 23.0978 20 21.448L27.586 29L29 27.586L21.448 20ZM13 22C11.22 22 9.47992 21.4722 7.99987 20.4832C6.51983 19.4943 5.36628 18.0887 4.68509 16.4442C4.0039 14.7996 3.82567 12.99 4.17294 11.2442C4.5202 9.49836 5.37737 7.89472 6.63604 6.63604C7.89472 5.37737 9.49836 4.5202 11.2442 4.17294C12.99 3.82567 14.7996 4.0039 16.4442 4.68509C18.0887 5.36628 19.4943 6.51983 20.4832 7.99987C21.4722 9.47992 22 11.22 22 13C21.9974 15.3861 21.0483 17.6738 19.361 19.361C17.6738 21.0483 15.3861 21.9974 13 22Z" fill="#DFDFDF"/>
</svg>
